<?xml version="1.0" encoding="utf-8"?>
<!-- Generator: Adobe Illustrator 16.0.3, SVG Export Plug-In . SVG Version: 6.00 Build 0)  -->
<!DOCTYPE svg PUBLIC "-//W3C//DTD SVG 1.1//EN" "http://www.w3.org/Graphics/SVG/1.1/DTD/svg11.dtd">
<svg version="1.1" id="_xFF91_饑1" xmlns="http://www.w3.org/2000/svg" xmlns:xlink="http://www.w3.org/1999/xlink" x="0px"
	 y="0px" width="1417.32px" height="1417.32px" viewBox="0 0 1417.32 1417.32" enable-background="new 0 0 1417.32 1417.32"
	 xml:space="preserve">
<g>
	<path fill="#3E3A39" d="M708.66,130.34c-319.397,0-578.32,258.923-578.32,578.32s258.923,578.32,578.32,578.32
		s578.32-258.923,578.32-578.32S1028.058,130.34,708.66,130.34z M1075.502,1075.502c-47.664,47.664-103.152,85.079-164.923,111.206
		c-63.921,27.036-131.856,40.745-201.919,40.745c-70.063,0-137.998-13.709-201.919-40.745
		c-61.77-26.127-117.258-63.542-164.922-111.206c-47.665-47.664-85.08-103.152-111.206-164.923
		c-27.036-63.921-40.745-131.856-40.745-201.919c0-70.063,13.709-137.998,40.745-201.919
		c26.126-61.77,63.542-117.258,111.206-164.922c47.664-47.665,103.152-85.08,164.922-111.206
		c63.921-27.036,131.856-40.745,201.919-40.745c70.063,0,137.998,13.709,201.919,40.745
		c61.771,26.126,117.259,63.542,164.923,111.206c47.664,47.664,85.079,103.152,111.206,164.922
		c27.036,63.921,40.745,131.856,40.745,201.919c0,70.063-13.709,137.998-40.745,201.919
		C1160.581,972.35,1123.166,1027.838,1075.502,1075.502z"/>
	<path fill="none" d="M698,774.527c-74.383,0-144.313,28.967-196.91,81.563c-52.597,52.596-81.563,122.526-81.563,196.909h556.945
		c0-74.383-28.967-144.313-81.563-196.909C842.313,803.494,772.383,774.527,698,774.527z"/>
	<g>
		<path fill="#3E3A39" d="M703.995,301c-135.862,0-246,110.138-246,246c0,135.862,110.138,246,246,246
			c135.861,0,246-110.138,246-246C949.995,411.138,839.856,301,703.995,301z M703.995,733.473
			c-102.821,0-186.473-83.651-186.473-186.473s83.651-186.473,186.473-186.473S890.468,444.179,890.468,547
			S806.816,733.473,703.995,733.473z"/>
		<path fill="#3E3A39" d="M511.75,874.563C564.347,821.967,634.277,793,708.66,793s144.313,28.967,196.909,81.563
			c52.597,52.596,81.563,122.526,81.563,196.909h59.527c0-186.672-151.328-338-338-338c-186.672,0-338,151.328-338,338h59.527
			C430.188,997.09,459.154,927.159,511.75,874.563z"/>
	</g>
</g>
</svg>
